<?xml version="1.0" encoding="utf-8"?>
<!-- Generator: Adobe Illustrator 25.2.3, SVG Export Plug-In . SVG Version: 6.00 Build 0)  -->
<svg version="1.1" id="Calque_1" xmlns="http://www.w3.org/2000/svg" xmlns:xlink="http://www.w3.org/1999/xlink" x="0px" y="0px"
	 viewBox="0 0 33 36" style="enable-background:new 0 0 33 36;" xml:space="preserve">
<style type="text/css">
	.st0{fill:#5663FF;}
</style>
<desc>Created with Sketch.</desc>
<g>
	<ellipse class="st0" cx="16.6" cy="10.4" rx="3" ry="2.8"/>
	<path class="st0" d="M11.2,15.9c-5.5-1.5-6.8-1.8-6.8-1.8c0,0.1,4.1,0.7,7.7,3.6c2.2,1.8,3.6,4,4.4,5.6c0.7-1.6,2-3.7,4.1-5.4
		c3.6-3,8.1-3.5,8.1-3.6c0,0-1.3,0.2-6.5,1.5c-0.6-0.5-2.6-1.8-5.4-1.8C13.9,14.1,11.9,15.5,11.2,15.9z"/>
	<path d="M30.8,16.6c-1.6,0.1-5.3,0.5-9,3.1c-3,2.1-4.6,4.6-5.4,6c-0.7-1.4-2.1-3.8-4.7-5.8c-3.9-3-8.1-3.3-9.6-3.3
		c1.2,2.3,2.4,4.7,3.6,7c1-0.1,5.7-0.5,9,2.8c0.8,0.8,1.4,1.8,1.8,2.6c0.4-0.9,1-1.9,1.9-2.8c3.3-3.2,8-2.5,8.7-2.4
		C28.4,21.4,29.6,19,30.8,16.6"/>
	<g>
		<path class="st0" d="M7.4,12.9c0-2,0-4,0-5.9c1.3-0.9,4.5-2.7,8.8-2.7c4.6-0.1,8,1.9,9.3,2.7c0,1.4,0,3.5,0,5.9l2.3-0.8
			c0-3,0-5.4,0-7.1C26.2,4,22,1.8,16.2,1.9C10.7,1.9,6.8,4,5.1,5.1c0,2.4,0,4.7,0,7.1L7.4,12.9z"/>
		<path d="M24.3,25c-0.9,1.7-2.8,4.5-7.6,6.7c-2-0.8-6.2-2.9-7.9-6.7l-2.6-0.9c0.1,0.4,0.2,0.8,0.3,1.2c1.7,5.1,7.5,7.8,10.2,8.8
			c7.1-3,9.3-7.1,10-8.8c0.2-0.4,0.3-0.8,0.4-1.2L24.3,25z"/>
	</g>
</g>
</svg>
